<?xml version="1.0" encoding="UTF-8"?>
<svg width="32" height="32" viewBox="0 0 32 32" fill="none" xmlns="http://www.w3.org/2000/svg" role="img" aria-label="AI-SMS Lead Platform Logo">
    <!-- Main Circle - Representing AI/Technology -->
    <circle cx="16" cy="16" r="15" stroke="#2563EB" stroke-width="2" fill="none"/>
    
    <!-- Message Bubble - Representing SMS -->
    <path 
        d="M8 12C8 10.8954 8.89543 10 10 10H22C23.1046 10 24 10.8954 24 12V18C24 19.1046 23.1046 20 22 20H18L16 22L14 20H10C8.89543 20 8 19.1046 8 18V12Z" 
        fill="#3B82F6"
    />
    
    <!-- AI Symbol -->
    <path 
        d="M12 14L14 17M14 17L16 14M14 17L14 17M18 14L20 17M19 15.5H17" 
        stroke="white" 
        stroke-width="1.5" 
        stroke-linecap="round" 
        stroke-linejoin="round"
    />
    
    <!-- Connection Lines - Representing Lead Generation -->
    <path 
        d="M16 4C19.7712 4 23.2831 5.57946 25.8995 8.10048" 
        stroke="#2563EB" 
        stroke-width="2" 
        stroke-linecap="round"
    />
    
    <!-- Decorative Dots - Representing Data Points -->
    <circle cx="26" cy="8" r="1.5" fill="#2563EB"/>
    <circle cx="6" cy="24" r="1.5" fill="#2563EB"/>
    
    <!-- Metadata -->
    <metadata>
        <rdf:RDF xmlns:rdf="http://www.w3.org/1999/02/22-rdf-syntax-ns#">
            <rdf:Description>
                <dc:title>AI-SMS Lead Platform Logo</dc:title>
                <dc:creator>AI-SMS Lead Platform</dc:creator>
                <dc:format>image/svg+xml</dc:format>
            </rdf:Description>
        </rdf:RDF>
    </metadata>
    
    <!-- Style definitions for fallback and high contrast support -->
    <style>
        @media (forced-colors: active) {
            circle, path {
                stroke: CanvasText;
            }
            path[fill="#3B82F6"] {
                fill: CanvasText;
            }
        }
    </style>
</svg>